<?xml version="1.0" encoding="utf-8"?>
<svg xmlns="http://www.w3.org/2000/svg" fill="none" viewBox="0 0 300 131">
  <path d="M275.447 19.77v-2.478a1.194 1.194 0 0 0 1.023-1.178c0-.658-.537-1.19-1.199-1.19s-1.198.532-1.198 1.19c0 .591.433 1.082 1.002 1.175l-3.348 3.723-3.031-3.744c.518-.131.901-.598.901-1.154 0-.658-.536-1.19-1.198-1.19-.662 0-1.199.532-1.199 1.19 0 .544.367 1.002.868 1.145l-3.038 3.753-3.311-3.681a1.208 1.208 0 0 0 1.006-1.196c0-.67-.536-1.212-1.198-1.212-.662 0-1.199.543-1.199 1.212 0 .594.423 1.088.982 1.191v7.838c0 .246.201.445.448.445h7.839M274.511 22.31v4.978M277 24.8h-4.978" stroke="#E6DED3" stroke-width="1.12" stroke-linecap="round"/>
  <path d="M21.203 20.847H18.35V19.8h6.842v1.048H22.34v7.902h-1.136v-7.902Zm4.674 1.528h1.098v6.374h-1.098v-6.374Zm-.076-2.74h1.25v1.263H25.8v-1.263Zm2.76 9.114v-6.374h.935l.1.934c.342-.745 1.086-1.111 1.819-1.111.959 0 1.628.43 1.906 1.212.353-.796 1.186-1.212 1.994-1.212 1.465 0 2.159.934 2.159 2.348v4.203H36.4v-4.064c0-.884-.354-1.515-1.3-1.515-.972 0-1.566.858-1.566 1.931v3.648h-1.06v-4.026c0-.884-.316-1.553-1.275-1.553-.947 0-1.565.896-1.565 1.931v3.648h-1.073Zm12.964.177c-.833 0-1.502-.29-1.982-.745-.72-.681-.934-1.616-.934-2.625 0-1.01.215-1.932.934-2.613.48-.455 1.15-.745 1.982-.745.833 0 1.502.29 1.982.745.72.681.934 1.603.934 2.613s-.214 1.944-.934 2.625c-.48.455-1.149.745-1.982.745Zm0-.921c.518 0 .934-.19 1.2-.455.466-.467.618-1.149.618-1.994 0-.846-.152-1.515-.619-1.982-.265-.265-.681-.455-1.199-.455-.517 0-.934.19-1.199.455-.467.467-.618 1.136-.618 1.982 0 .845.151 1.527.618 1.994.265.265.682.455 1.2.455Zm6.48.82c-1.375 0-1.83-.96-1.83-1.818v-3.71h-1.401v-.922h1.401v-1.692l1.073-.252v1.944h1.818v.921h-1.818v3.585c0 .657.341.96.934.96.366 0 .72-.064.947-.127v.922c-.24.088-.58.19-1.123.19Zm2.073-9.215h1.073v3.61c.366-.669 1.237-1.022 1.919-1.022 1.452 0 2.247.858 2.247 2.348v4.203h-1.073v-4.052c0-.96-.43-1.527-1.401-1.527-1.06 0-1.692.934-1.692 2.171v3.408h-1.073V19.61Zm6.969 11.954c-.455 0-.783-.1-.934-.176v-.91c.19.09.467.152.732.152.492 0 .947-.126 1.237-.896l.366-.985-2.55-6.374h1.225l1.868 5.024 1.78-5.024h1.136l-2.84 7.599c-.404 1.085-1.023 1.59-2.02 1.59ZM18.95 37.41h2.041c.678 0 1.281.207 1.72.645.603.603.735 1.372.735 2.29 0 .909-.14 1.66-.744 2.264-.438.438-1.033.661-1.71.661H18.95v-5.86Zm1.959 5.182c.578 0 .967-.157 1.28-.47.472-.48.505-1.15.505-1.778 0-.636-.041-1.297-.504-1.785-.306-.322-.703-.47-1.281-.47h-1.223v4.503h1.223Zm7.524.678-.595-1.653h-2.529l-.587 1.653h-.752l2.174-5.86h.876l2.182 5.86h-.769Zm-2.876-2.347h2.025l-1.017-2.827-1.008 2.827Zm4.559-3.513h.752v5.86h-.752v-5.86Zm2.44 0h.735v5.174h2.818v.686h-3.554v-5.86Zm5.041 3.463-1.966-3.462h.826l1.537 2.768 1.53-2.769h.784l-1.967 3.463v2.397h-.744v-2.397Zm7.17 2.513c-1.323 0-2.306-.785-2.306-1.967h.768c.017.777.67 1.289 1.537 1.289.802 0 1.389-.38 1.389-1.041 0-.447-.298-.827-.984-.934l-.925-.14c-.893-.133-1.562-.62-1.562-1.554 0-1.009.975-1.744 2.05-1.744 1.14 0 2.049.727 2.082 1.826h-.769c-.04-.71-.528-1.149-1.322-1.149-.727 0-1.28.397-1.28 1.034 0 .545.437.776.875.843l.975.148c.975.15 1.628.744 1.628 1.67 0 1.058-.991 1.719-2.157 1.719Zm5.503 0c-.603 0-1.181-.19-1.611-.604-.653-.628-.802-1.504-.802-2.438 0-.934.15-1.801.802-2.421a2.31 2.31 0 0 1 1.611-.628c1.174 0 2.133.801 2.182 1.95H51.7c-.041-.744-.653-1.256-1.43-1.256-.43 0-.826.149-1.107.446-.487.504-.545 1.298-.545 1.91 0 .611.057 1.396.545 1.9.281.298.703.447 1.108.447.834 0 1.38-.513 1.438-1.29h.752c-.058 1.19-1.05 1.984-2.19 1.984Zm5.556 0c-.678 0-1.264-.232-1.703-.686-.603-.628-.743-1.405-.743-2.356 0-.95.14-1.727.743-2.355.439-.454 1.025-.694 1.703-.694.678 0 1.264.24 1.702.694.604.628.744 1.405.744 2.355s-.14 1.728-.744 2.356c-.438.454-1.024.686-1.702.686Zm0-.703c.504 0 .9-.173 1.198-.496.447-.495.488-1.181.488-1.843 0-.66-.041-1.347-.488-1.843-.297-.322-.694-.504-1.198-.504s-.9.182-1.198.504c-.447.496-.488 1.182-.488 1.843 0 .662.041 1.347.488 1.843.297.323.694.496 1.198.496Zm3.802-5.273h2.298c1.19 0 1.95.645 1.95 1.711 0 .744-.43 1.347-1.248 1.587l1.256 2.562h-.826l-1.174-2.438h-1.52v2.438h-.736v-5.86Zm2.298 2.736c.694 0 1.19-.28 1.19-1.025 0-.744-.496-1.033-1.19-1.033h-1.562v2.058h1.562Zm3.289-2.736h3.835v.678h-3.1v1.802h2.711v.694h-2.71v2.008h3.099v.678h-3.835v-5.86Zm6.97 5.976c-1.323 0-2.306-.785-2.306-1.967h.768c.017.777.67 1.289 1.537 1.289.802 0 1.389-.38 1.389-1.041 0-.447-.298-.827-.984-.934l-.925-.14c-.893-.133-1.562-.62-1.562-1.554 0-1.009.975-1.744 2.05-1.744 1.14 0 2.049.727 2.082 1.826h-.769c-.04-.71-.529-1.149-1.322-1.149-.727 0-1.28.397-1.28 1.034 0 .545.437.776.875.843l.975.148c.976.15 1.628.744 1.628 1.67 0 1.058-.991 1.719-2.157 1.719ZM18.981 68.171h2.298c1.19 0 1.95.645 1.95 1.71 0 .745-.43 1.348-1.248 1.588l1.256 2.562h-.826l-1.174-2.438h-1.52v2.438h-.736v-5.86Zm2.298 2.736c.694 0 1.19-.281 1.19-1.025 0-.744-.496-1.033-1.19-1.033h-1.562v2.058h1.562Zm4.87 3.24c-.604 0-1.125-.24-1.463-.629-.356-.405-.53-.958-.53-1.553 0-.505.092-.95.331-1.34.306-.504.868-.884 1.612-.884 1.14 0 1.835.91 1.835 2.017 0 .132 0 .297-.017.421h-3.025c0 .777.471 1.347 1.265 1.347.48 0 .867-.24 1.008-.735h.703c-.116.793-.868 1.355-1.72 1.355Zm-1.24-2.57h2.306c0-.72-.397-1.24-1.133-1.24-.768 0-1.157.627-1.173 1.24Zm5.4 2.57c-.96 0-1.439-.645-1.439-1.29 0-.537.348-1.248 1.488-1.314l1.273-.074v-.29c0-.595-.306-.867-.91-.867-.57 0-.958.289-.958.76h-.686c.017-.851.736-1.33 1.645-1.33.975 0 1.603.512 1.603 1.446v2.025c0 .223.09.28.231.28a.925.925 0 0 0 .182-.024v.52a.972.972 0 0 1-.463.1c-.371 0-.611-.281-.611-.637-.248.405-.76.694-1.356.694Zm.107-.587c.76 0 1.215-.57 1.215-1.298v-.248l-1.207.066c-.413.025-.834.248-.834.76 0 .348.23.72.826.72Zm5.087.586c-.52 0-.925-.19-1.215-.463-.43-.404-.644-1.033-.644-1.735 0-.719.223-1.38.686-1.785.297-.256.694-.422 1.198-.422.529 0 1.025.24 1.19.595v-2.289h.703v5.984h-.62l-.05-.629c-.206.496-.76.744-1.248.744Zm.075-.595c.314 0 .545-.132.727-.289.347-.297.446-.802.446-1.322s-.09-1.025-.446-1.33a1.073 1.073 0 0 0-.72-.274c-.363 0-.619.116-.809.314-.298.306-.413.819-.413 1.29 0 .463.099.942.372 1.256.19.215.462.355.843.355Zm3.376-3.694h.72v4.174h-.72v-4.174Zm-.05-1.793h.819v.826h-.818v-.826Zm2.304 5.967v-4.174h.612l.057.645c.215-.496.819-.76 1.29-.76.95 0 1.47.57 1.47 1.537v2.752h-.702v-2.653c0-.612-.28-1-.9-1-.703 0-1.124.611-1.124 1.388v2.265h-.703Zm6.653.115c-.604 0-1.124-.24-1.463-.628-.356-.405-.53-.958-.53-1.553 0-.505.092-.95.331-1.34.306-.504.868-.884 1.612-.884 1.14 0 1.835.91 1.835 2.017 0 .132 0 .297-.017.421h-3.025c0 .777.471 1.347 1.265 1.347.48 0 .867-.24 1.008-.735h.703c-.116.793-.868 1.355-1.72 1.355Zm-1.24-2.57h2.306c0-.719-.397-1.24-1.133-1.24-.768 0-1.157.629-1.173 1.24Zm5.713 2.57c-.991 0-1.76-.553-1.76-1.438h.703c.016.562.47.852 1.09.852.505 0 .976-.224.976-.695 0-.314-.232-.512-.661-.578l-.926-.149c-.612-.1-1.033-.48-1.033-1.116 0-.76.744-1.28 1.578-1.28.926 0 1.629.528 1.629 1.33h-.703c-.016-.471-.397-.744-.925-.744-.513 0-.91.248-.91.661 0 .314.232.463.57.521l.984.157c.595.1 1.083.52 1.083 1.149 0 .86-.752 1.33-1.695 1.33Zm4.312 0c-.992 0-1.76-.553-1.76-1.438h.702c.017.562.471.852 1.091.852.504 0 .975-.224.975-.695 0-.314-.23-.512-.66-.578l-.926-.149c-.612-.1-1.033-.48-1.033-1.116 0-.76.744-1.28 1.578-1.28.926 0 1.628.528 1.628 1.33h-.702c-.017-.471-.397-.744-.926-.744-.512 0-.909.248-.909.661 0 .314.231.463.57.521l.984.157c.595.1 1.082.52 1.082 1.149 0 .86-.752 1.33-1.694 1.33ZM119.981 74.146c-1.322 0-2.305-.785-2.305-1.967h.768c.017.777.67 1.29 1.537 1.29.802 0 1.389-.38 1.389-1.042 0-.446-.298-.826-.984-.934l-.925-.14c-.893-.132-1.562-.62-1.562-1.554 0-1.008.975-1.744 2.049-1.744 1.141 0 2.05.728 2.083 1.827h-.769c-.041-.71-.529-1.149-1.322-1.149-.727 0-1.281.397-1.281 1.033 0 .546.438.777.876.843l.975.149c.975.149 1.628.744 1.628 1.67 0 1.057-.991 1.718-2.157 1.718Zm4.24-.058c-.579 0-.917-.322-.917-.983v-5.058h.702v4.975c0 .281.091.43.38.43.05 0 .116 0 .29-.016v.595a1.448 1.448 0 0 1-.455.057Zm3.185.058c-.603 0-1.124-.24-1.463-.628-.355-.405-.528-.958-.528-1.553 0-.505.09-.95.33-1.34.306-.504.868-.884 1.612-.884 1.14 0 1.834.91 1.834 2.017 0 .132 0 .297-.016.421h-3.025c0 .777.471 1.347 1.265 1.347.479 0 .867-.24 1.008-.735h.702c-.115.793-.868 1.355-1.719 1.355Zm-1.239-2.57h2.305c0-.719-.396-1.24-1.132-1.24-.768 0-1.157.629-1.173 1.24Zm6.019 2.57c-.603 0-1.124-.24-1.463-.628-.355-.405-.529-.958-.529-1.553 0-.505.091-.95.331-1.34a1.843 1.843 0 0 1 1.611-.884c1.141 0 1.835.91 1.835 2.017 0 .132 0 .297-.016.421h-3.025c0 .777.471 1.347 1.264 1.347.48 0 .868-.24 1.009-.735h.702c-.116.793-.868 1.355-1.719 1.355Zm-1.24-2.57h2.306c0-.719-.396-1.24-1.132-1.24-.769 0-1.157.629-1.174 1.24Zm4.293 4.24v-5.959h.619l.05.62c.182-.488.793-.736 1.281-.736.521 0 .934.174 1.215.455.405.405.611 1.017.611 1.736 0 .718-.206 1.371-.644 1.776a1.734 1.734 0 0 1-1.182.438c-.512 0-1.041-.206-1.248-.628v2.298h-.702Zm1.834-2.265c.397 0 .67-.148.86-.372.273-.314.363-.785.363-1.24 0-.446-.09-.908-.347-1.222-.19-.232-.471-.38-.876-.38-.314 0-.529.123-.702.272-.356.306-.463.81-.463 1.33 0 .521.107 1.026.463 1.331.173.15.388.281.702.281ZM221.023 74.03l-.595-1.652h-2.529l-.587 1.653h-.752l2.173-5.86h.876l2.182 5.86h-.768Zm-2.876-2.347h2.024l-1.016-2.826-1.008 2.826Zm6.129 2.463c-.562 0-1.009-.181-1.331-.512-.38-.388-.57-.975-.57-1.694 0-.678.19-1.232.521-1.612.347-.397.81-.587 1.405-.587 1.016 0 1.644.653 1.694 1.521h-.711c-.066-.587-.479-.909-1.017-.909-.388 0-.669.165-.859.405-.223.28-.314.686-.314 1.182 0 .512.091.942.322 1.215.199.24.48.38.851.38.554 0 .976-.347 1.034-.901h.71c-.066.9-.801 1.512-1.735 1.512Zm4.529-.066c-.901 0-1.199-.628-1.199-1.19v-2.43h-.917v-.603h.917V68.75l.703-.166v1.273h1.19v.603h-1.19v2.348c0 .43.223.628.611.628.24 0 .471-.042.62-.083v.603c-.157.058-.38.124-.735.124Zm1.852-4.223h.719v4.174h-.719v-4.174Zm-.049-1.793h.818v.826h-.818v-.826Zm3.262 5.967-1.546-4.174h.744l1.198 3.364 1.157-3.364h.719l-1.512 4.174h-.76Zm3.24-4.174h.719v4.174h-.719v-4.174Zm-.05-1.793h.818v.826h-.818v-.826Zm3.915 6.016c-.901 0-1.198-.628-1.198-1.19v-2.43h-.918v-.603h.918V68.75l.702-.166v1.273h1.19v.603h-1.19v2.348c0 .43.223.628.612.628.239 0 .471-.042.62-.083v.603a2.012 2.012 0 0 1-.736.124Zm2.026 1.794c-.297 0-.512-.066-.611-.116v-.595c.124.058.306.099.479.099.322 0 .62-.083.81-.587l.24-.644-1.67-4.174h.802l1.223 3.29 1.165-3.29h.744l-1.859 4.975c-.265.711-.67 1.042-1.323 1.042ZM29.524 106.111c-2.458 0-4.317-1.17-5.396-2.639-1.53-2.068-1.86-4.857-1.86-7.825 0-3.268.54-6.865 2.58-9.114 1.138-1.259 2.817-2.038 5.156-2.038 3.327 0 5.966 2.098 6.236 5.456H33.54c-.18-1.889-1.678-3.148-3.747-3.148-3.988 0-4.827 4.167-4.827 7.945.78-1.59 2.668-2.698 4.917-2.698 4.167 0 6.745 2.938 6.745 6.985 0 3.928-2.758 7.076-7.105 7.076Zm.06-2.309c2.788 0 4.407-2.069 4.407-4.737 0-2.518-1.409-4.737-4.467-4.737-2.788 0-4.287 2.069-4.287 4.737 0 2.488 1.499 4.737 4.347 4.737Zm8.778 1.889v-2.429l8.305-8.934c1.379-1.469 1.889-2.818 1.889-4.017 0-2.099-1.35-3.508-3.598-3.508-2.489 0-3.987 1.47-3.987 4.497h-2.639c0-4.407 2.728-6.805 6.656-6.805 3.688 0 6.176 2.278 6.176 5.786 0 2.128-.93 3.837-2.459 5.456l-7.015 7.555h9.864v2.399H38.362ZM121.588 105.691l8.814-18.468H119.43v-2.309h13.671v2.309l-8.695 18.468h-2.818Zm19.572.42c-3.988 0-7.076-2.309-7.076-6.177 0-2.278 1.409-4.257 3.508-5.066-1.859-.84-3.058-2.608-3.058-4.617 0-3.478 2.758-5.756 6.626-5.756 3.867 0 6.625 2.278 6.625 5.756 0 2.008-1.139 3.777-2.998 4.617 2.099.81 3.448 2.788 3.448 5.067 0 3.867-3.088 6.176-7.075 6.176Zm0-12.352c2.518 0 3.927-1.59 3.927-3.508 0-2.129-1.619-3.508-3.927-3.508-2.309 0-3.928 1.38-3.928 3.508 0 1.919 1.409 3.508 3.928 3.508Zm0 10.103c2.548 0 4.347-1.589 4.347-4.047 0-2.219-1.589-3.838-4.347-3.838-2.758 0-4.347 1.62-4.347 3.838 0 2.458 1.798 4.047 4.347 4.047ZM219.402 105.691l8.814-18.468h-10.973v-2.309h13.671v2.309l-8.694 18.468h-2.818Zm19.151.42c-3.837 0-6.715-2.459-6.865-6.386h2.608c.15 2.338 1.619 4.077 4.257 4.077 2.489 0 4.318-1.469 4.318-3.838 0-2.548-2.009-3.867-4.677-3.867h-1.469v-2.368h1.469c2.518 0 4.197-1.29 4.197-3.478 0-1.949-1.499-3.448-3.808-3.448-2.548 0-4.077 1.5-4.137 3.778h-2.608c.15-3.748 2.788-6.086 6.805-6.086 3.418 0 6.356 2.008 6.356 5.756a4.902 4.902 0 0 1-3.537 4.677c2.668.66 3.987 2.818 3.987 5.037 0 3.717-2.938 6.146-6.896 6.146Z" fill="#fff"/>
</svg>