<?xml version="1.0" encoding="utf-8"?>
<svg xmlns="http://www.w3.org/2000/svg" fill="none" viewBox="0 0 251 336">
  <g filter="url(#a)">
    <g clip-path="url(#b)">
      <path d="M25.435 29.53c-2.254 0-4.004-1.275-4.004-3.333h1.876c0 1.078.938 1.778 2.156 1.778 1.232 0 2.114-.476 2.114-1.484 0-.714-.588-1.05-1.274-1.162l-1.904-.308c-1.638-.266-2.702-1.134-2.702-2.744 0-1.792 1.82-3.066 3.78-3.066 2.058 0 3.724 1.246 3.766 3.08h-1.848c-.042-.952-.868-1.54-1.946-1.54-1.008 0-1.946.448-1.946 1.4 0 .602.49.994 1.204 1.106l1.848.294c1.624.266 2.842 1.162 2.842 2.842 0 1.974-1.778 3.136-3.962 3.136Zm9.445 0c-2.478 0-3.892-1.373-3.892-3.767v-6.356h1.806v6.258c0 1.414.672 2.226 2.086 2.226 1.414 0 2.086-.812 2.086-2.226v-6.258h1.806v6.356c0 2.394-1.414 3.766-3.892 3.766Zm16.17-10.123v9.926H49.3v-7.588l-2.576 7.448h-1.386l-2.562-7.602v7.742h-1.75v-9.926h2.618l2.45 7.252 2.464-7.252h2.492Zm12.373 0v9.926h-1.75v-7.588l-2.576 7.448H57.71l-2.562-7.602v7.742h-1.75v-9.926h2.618l2.45 7.252 2.464-7.252h2.492Zm7.739 7.714H67.13l-.742 2.212h-1.862l3.542-9.926h2.226l3.542 9.926h-1.932l-.742-2.212Zm-.546-1.596-1.47-4.354-1.47 4.354h2.94Zm8.516-6.118c2.365 0 3.444 1.484 3.444 3.08 0 1.344-.728 2.38-1.89 2.786l1.82 4.06h-1.989l-1.61-3.752h-2.141v3.752h-1.82v-9.926h4.186Zm-.014 4.55c1.064 0 1.651-.546 1.651-1.498 0-.798-.574-1.47-1.638-1.47h-2.38v2.968h2.367Zm3.796-4.55h2.016l2.394 4.312 2.394-4.312h1.932l-3.472 6.048v3.878h-1.82v-3.878l-3.444-6.048Z" fill="#fff"/>
      <path stroke="#fff" stroke-opacity=".2" stroke-width=".833" d="M250.969 47.083h-250"/>
      <g clip-path="url(#c)">
        <path d="M31.455 66.74h1.708l-1.988 9.927h-1.96l-2.03-6.874-1.988 6.874h-2.002l-2.016-9.926h1.778l1.386 7.28 2.072-7.126h1.596l2.03 7.126 1.414-7.28Zm4.887 10.123c-1.736 0-2.632-1.092-2.632-2.282 0-1.33.98-2.212 2.604-2.324l2.002-.14v-.42c0-.686-.364-1.162-1.288-1.162-.854 0-1.288.378-1.33 1.05h-1.694c0-1.386 1.246-2.394 3.052-2.394 1.876 0 2.968.868 2.968 2.744v2.926c0 .336.154.462.448.462a.974.974 0 0 0 .224-.028v1.288c-.224.126-.476.196-.868.196-.756 0-1.218-.434-1.33-1.064-.336.588-1.12 1.148-2.156 1.148Zm.238-1.4c1.19 0 1.736-.784 1.736-1.736v-.322l-1.68.126c-.7.056-1.218.322-1.218.98 0 .56.434.952 1.162.952Zm7.454 1.288c-1.19 0-1.988-.574-1.988-1.96v-8.26h1.764v7.966c0 .42.098.7.7.7.154 0 .196-.014.294-.014v1.47c-.322.07-.448.098-.77.098Zm2.183-.084V66.53h1.75v6.048l2.772-3.192h2.184l-2.744 2.968 2.884 4.312h-2.072L49.003 73.6l-1.036 1.134v1.932h-1.75Zm7.916-7.28h1.778v7.28h-1.778v-7.28Zm-.056-2.842h1.89v1.806h-1.89v-1.806Zm3.885 10.122v-7.28h1.525l.084.952c.434-.784 1.33-1.148 2.17-1.148 1.554 0 2.507 1.078 2.507 2.604v4.872h-1.75V72.2c0-.854-.406-1.386-1.218-1.386-1.093 0-1.569.966-1.569 2.1v3.752h-1.75Zm11.113 3.22c-1.792 0-3.5-.392-3.5-2.044 0-.658.434-1.19 1.078-1.456a1.397 1.397 0 0 1-.728-1.204c0-.574.378-1.092.966-1.372a2.475 2.475 0 0 1-.882-1.918c0-1.624 1.288-2.702 2.982-2.702.602 0 1.19.168 1.652.448.224-.742.882-1.106 1.54-1.106.112 0 .364 0 .476.028v1.386c-.042-.014-.126-.014-.168-.014-.42 0-.882.14-.938.588.266.406.406.854.406 1.358 0 1.596-1.316 2.646-2.968 2.646-.42 0-.826-.07-1.204-.196-.196.098-.364.252-.364.49 0 .434.378.504.742.504h1.232c.728 0 1.666.014 2.352.49.63.434.854 1.022.854 1.722 0 1.666-1.624 2.352-3.528 2.352Zm0-1.33c.91 0 1.89-.14 1.89-.98s-.952-.868-1.61-.868h-1.568c-.378.112-.658.406-.658.868 0 .84 1.05.98 1.946.98Zm-.084-5.334c.798 0 1.288-.546 1.288-1.358s-.49-1.372-1.288-1.372-1.288.56-1.288 1.372.49 1.358 1.288 1.358Zm12.832-6.678-4.298 10.318h-1.288l4.298-10.318h1.288Zm7.62 10.318c-1.106 0-1.848-.378-2.38-.868-1.05-.966-1.218-2.576-1.218-4.172 0-1.596.168-3.22 1.218-4.186.532-.49 1.274-.868 2.38-.868 1.106 0 1.862.378 2.38.868 1.064.98 1.218 2.59 1.218 4.186s-.154 3.192-1.218 4.172c-.518.476-1.274.868-2.38.868Zm0-1.624c.56 0 .966-.168 1.246-.532.42-.532.56-1.47.56-2.884 0-1.064-.028-2.282-.602-2.94-.266-.308-.658-.49-1.204-.49-.546 0-.938.196-1.204.504-.574.672-.602 1.904-.602 2.926 0 1.47.168 2.408.602 2.926.28.336.672.49 1.204.49Zm4.871-.686h2.114v2.114h-2.114v-2.114Zm7.112 2.31c-1.96 0-3.388-1.288-3.444-3.108h1.764c.07.952.714 1.568 1.694 1.568 1.022 0 1.666-.602 1.666-1.484 0-1.008-.798-1.442-1.82-1.442h-.784V70.87h.756c.812 0 1.638-.308 1.638-1.302 0-.742-.588-1.26-1.456-1.26-1.008 0-1.624.63-1.624 1.428h-1.778c.028-1.75 1.526-2.968 3.402-2.968 1.848 0 3.234 1.078 3.234 2.758 0 .882-.546 1.778-1.498 2.086 1.092.28 1.708 1.274 1.708 2.282 0 1.862-1.54 2.968-3.458 2.968Zm8.16-.196v-7.28h1.526l.07.966c.406-.686 1.106-1.162 2.072-1.162 1.022 0 1.708.462 2.072 1.19.434-.756 1.218-1.19 2.198-1.19 1.554 0 2.366 1.036 2.366 2.548v4.928h-1.736v-4.508c0-.896-.308-1.442-1.134-1.442-.966 0-1.414.854-1.414 1.89v4.06h-1.722v-4.508c0-.896-.308-1.442-1.134-1.442-.966 0-1.428.854-1.428 1.89v4.06h-1.736Zm12.278-7.28h1.778v7.28h-1.778v-7.28Zm-.056-2.842h1.89v1.806h-1.89v-1.806Z" fill="#F2F3F5"/>
        <path d="M24.569 95.835c-1.572 0-3.024-.804-3.024-2.436 0-.852.492-1.728 1.524-2.052a1.996 1.996 0 0 1-1.344-1.848c0-1.548 1.308-2.316 2.844-2.316 1.536 0 2.844.768 2.844 2.316 0 .708-.444 1.524-1.344 1.848a2.129 2.129 0 0 1 1.524 2.052c0 1.632-1.452 2.436-3.024 2.436Zm0-5.148c.852 0 1.284-.516 1.284-1.14 0-.624-.432-1.092-1.284-1.092-.852 0-1.284.468-1.284 1.092 0 .624.432 1.14 1.284 1.14Zm0 3.864c.864 0 1.452-.504 1.452-1.284 0-.708-.504-1.26-1.452-1.26s-1.452.552-1.452 1.26c0 .78.588 1.284 1.452 1.284Zm6.163-5.124v1.812H28.92v-1.812h1.812Zm0 4.428v1.812H28.92v-1.812h1.812Zm4.276 1.98c-1.728 0-2.928-1.02-2.988-2.604h1.5c.084.816.672 1.272 1.5 1.272.996 0 1.5-.708 1.5-1.608 0-.852-.492-1.524-1.5-1.524-.516 0-1.032.252-1.308.672h-1.524l.288-4.692h5.196v1.344h-3.936l-.132 2.04c.384-.456.972-.684 1.752-.684 1.728 0 2.7 1.2 2.7 2.784 0 1.764-1.164 3-3.048 3Zm6.996 0c-1.5 0-2.688-.948-2.748-2.292h1.5c.084.672.6 1.008 1.32 1.008 1.188 0 1.536-1.08 1.536-2.652-.252.672-1.068.972-1.728.972-1.824 0-2.88-1.116-2.88-2.808 0-1.632 1.14-2.88 3.012-2.88.864 0 1.524.3 1.992.744.768.72 1.104 1.74 1.104 3.432 0 1.212-.072 2.724-.972 3.624-.48.48-1.092.852-2.136.852Zm.036-4.188c.816 0 1.416-.648 1.416-1.524 0-.912-.516-1.596-1.44-1.596-.924 0-1.476.624-1.476 1.596 0 .864.54 1.524 1.5 1.524Zm11.733 2.124h-3.457l-.636 1.896h-1.596l3.036-8.508h1.909l3.035 8.508h-1.656l-.636-1.896Zm-.469-1.368-1.26-3.732-1.26 3.732h2.52Zm12.304-5.244v8.508h-1.5v-6.504L61.9 95.547h-1.188l-2.196-6.516v6.636h-1.5v-8.508h2.244l2.1 6.216 2.112-6.216h2.136ZM80.747 86.499a.472.472 0 1 0 0 .944h1.417v.968a4.724 4.724 0 1 0 .945 0v-.968h1.417a.472.472 0 0 0 0-.944h-3.779Zm1.89 2.834a3.779 3.779 0 1 1 0 7.557 3.779 3.779 0 0 1 0-7.557Zm0 1.417a.472.472 0 0 0-.473.472v1.89c0 .26.212.472.473.472h1.89a.472.472 0 0 0 0-.945h-1.418v-1.417a.472.472 0 0 0-.472-.472ZM91.617 90.435v-1.548l2.28-1.536h1.272v8.316h-1.5v-6.624l-2.052 1.392Zm8.067 5.4c-1.728 0-2.928-1.02-2.988-2.604h1.5c.084.816.672 1.272 1.5 1.272.996 0 1.5-.708 1.5-1.608 0-.852-.492-1.524-1.5-1.524-.516 0-1.032.252-1.308.672h-1.524l.288-4.692h5.196v1.344h-3.936l-.132 2.04c.384-.456.972-.684 1.752-.684 1.728 0 2.7 1.2 2.7 2.784 0 1.764-1.164 3-3.048 3Zm4.532-6.408h1.308l.06.828c.348-.588.948-.996 1.776-.996.876 0 1.452.396 1.776 1.02.372-.66 1.032-1.02 1.884-1.02 1.344 0 2.028.888 2.028 2.184v4.224h-1.488v-3.864c0-.768-.252-1.236-.972-1.236-.828 0-1.212.72-1.212 1.62v3.48H107.9v-3.864c0-.768-.252-1.236-.972-1.236-.828 0-1.224.72-1.224 1.62v3.48h-1.488v-6.24Z" fill="#AEB9CD"/>
        <path fill-rule="evenodd" clip-rule="evenodd" d="M128.068 89.549c.165-1.075.935-2.122 2.123-2.328-.129 1.408.626 2.741 1.687 3.609.466.381.918.825 1.251 1.307.333.483.533.984.533 1.488 0 1.128-.385 2.001-.999 2.593a3.25 3.25 0 0 1-1.346.768c.175-.233.279-.543.279-.93 0-1.194-.488-2.388-1.066-3.048-.137-.157-.36-.032-.374.175-.05.716-.421 1.106-.778 1.483-.356.374-.699.735-.699 1.39 0 .36.131.69.348.944-1.356-.388-2.174-1.484-2.42-2.717-.228-1.136.005-2.026.211-2.44a.365.365 0 0 0-.652-.325c-.279.558-.533 1.613-.274 2.908.366 1.83 1.826 3.452 4.246 3.452 1.191 0 2.258-.392 3.03-1.135.774-.745 1.223-1.816 1.223-3.118 0-.7-.277-1.344-.662-1.902-.386-.558-.893-1.05-1.39-1.457-1.01-.827-1.62-2.064-1.38-3.262a.456.456 0 0 0-.464-.546c-1.823.069-2.931 1.57-3.148 2.98a3.772 3.772 0 0 0 .301 2.134 3.901 3.901 0 0 0 .461.77l.038.047.011.013.004.004.001.002h.001l.272-.241-.272.242a.365.365 0 0 0 .546-.484h-.001l-.004-.006a1.584 1.584 0 0 1-.024-.029c-.021-.027-.054-.069-.092-.125a3.17 3.17 0 0 1-.276-.493 3.04 3.04 0 0 1-.245-1.723Z" fill="#AEB9CD"/>
        <path d="M143.243 93.999h-3.972v-1.596l3.216-5.052h1.716l-3.408 5.292h2.448v-2.244h1.5v2.244h1.128v1.356h-1.128v1.668h-1.5v-1.668Zm7.064-5.304h-4.416V87.35h6.036v1.2l-3.504 7.116h-1.644l3.528-6.972Zm8.673 7.14c-.972 0-1.848-.276-2.52-.948-.912-.924-1.176-2.076-1.176-3.48s.264-2.544 1.188-3.468c.672-.672 1.548-.948 2.508-.948 1.836 0 3.192 1.26 3.324 3.048h-1.584c-.084-1.044-.732-1.644-1.788-1.644-.54 0-1.044.192-1.38.564-.564.612-.696 1.356-.696 2.448 0 1.092.132 1.848.696 2.46.348.372.816.564 1.38.564 1.008 0 1.656-.6 1.788-1.62h1.584c-.192 1.86-1.584 3.024-3.324 3.024Zm6.457 0c-1.488 0-2.256-.936-2.256-1.956 0-1.152.828-1.896 2.232-1.992l1.716-.12v-.36c0-.588-.3-.996-1.104-.996-.732 0-1.104.324-1.14.9h-1.452c0-1.188 1.068-2.052 2.616-2.052 1.62 0 2.544.732 2.544 2.352v2.508c0 .288.132.396.384.396.06 0 .132-.012.192-.024v1.104c-.192.108-.408.168-.744.168-.66 0-1.044-.372-1.14-.912-.288.516-.948.984-1.848.984Zm.204-1.2c1.02 0 1.488-.672 1.488-1.488v-.276l-1.44.108c-.612.048-1.044.276-1.044.84 0 .48.372.816.996.816Zm6.389 1.104c-1.02 0-1.704-.492-1.704-1.68v-7.08h1.512v6.828c0 .372.084.6.6.6.132 0 .168-.012.252-.012v1.26c-.276.06-.384.084-.66.084Z" fill="#AEB9CD"/>
        <rect x="20.969" y="103.667" width="56" height="19" rx="3" fill="#31353C"/>
        <path d="M33.969 108.577v7.09h-1.25v-5.42l-1.84 5.32h-.99l-1.83-5.43v5.53h-1.25v-7.09h1.87l1.75 5.18 1.76-5.18h1.78Zm3.74 7.23c-.88 0-1.5-.36-1.87-.79-.43-.47-.66-1.03-.66-1.95 0-.92.23-1.48.66-1.95.37-.43.99-.79 1.87-.79.88 0 1.5.36 1.87.79.43.47.66 1.03.66 1.95 0 .92-.23 1.48-.66 1.95-.37.43-.99.79-1.87.79Zm0-1.09c.39 0 .66-.14.85-.33.33-.33.41-.81.41-1.32s-.08-.99-.41-1.32c-.19-.19-.46-.33-.85-.33-.39 0-.66.14-.85.33-.33.33-.41.81-.41 1.32s.08.99.41 1.32c.19.19.46.33.85.33Zm5.717 1.09c-.57 0-1.06-.2-1.42-.51-.6-.52-.89-1.37-.89-2.22 0-.88.27-1.67.78-2.16.39-.39.92-.59 1.56-.59.76 0 1.18.33 1.37.64v-2.54h1.25v7.24h-1.09l-.07-.74c-.21.59-.84.88-1.49.88Zm.21-1.06c.37 0 .65-.14.84-.35.31-.33.41-.79.41-1.34 0-.52-.1-.96-.39-1.31-.21-.25-.49-.37-.86-.37s-.66.13-.87.39c-.28.35-.38.78-.38 1.29s.1 1 .41 1.33c.2.23.47.36.84.36Zm6.123 1.06c-.75 0-1.28-.25-1.71-.64-.53-.51-.81-1.25-.81-2.1 0-.84.28-1.57.8-2.08.4-.39.94-.66 1.66-.66 1.49 0 2.4 1.05 2.4 2.6 0 .21-.01.38-.03.5h-3.58c0 .72.46 1.39 1.25 1.39.57 0 .96-.29 1.05-.7h1.17c-.16 1.02-1.07 1.69-2.2 1.69Zm1.09-3.29c0-.77-.44-1.2-1.12-1.2-.68 0-1.18.48-1.23 1.2h2.35Zm2.393-2.05h1.09l.08.86c.24-.65.86-.93 1.47-.93.13 0 .26.01.39.03v1.2a1.56 1.56 0 0 0-.4-.05c-.93 0-1.37.6-1.37 1.57v2.52h-1.26v-5.2Zm5.358 5.34c-1.24 0-1.88-.78-1.88-1.63 0-.96.69-1.58 1.86-1.66l1.43-.1v-.3c0-.49-.25-.83-.92-.83-.61 0-.92.27-.95.75h-1.21c0-.99.89-1.71 2.18-1.71 1.35 0 2.12.61 2.12 1.96v2.09c0 .24.11.33.32.33.05 0 .11-.01.16-.02v.92c-.16.09-.34.14-.62.14-.55 0-.87-.31-.95-.76-.24.43-.79.82-1.54.82Zm.17-1c.85 0 1.24-.56 1.24-1.24v-.23l-1.2.09c-.51.04-.87.23-.87.7 0 .4.31.68.83.68Zm5.869.93c-1.05 0-1.65-.53-1.65-1.53v-2.71h-.99v-1.03h.99v-1.32l1.25-.31v1.63h1.26v1.03h-1.26v2.53c0 .4.26.57.66.57.27 0 .45-.03.61-.07v1.08c-.27.11-.56.13-.87.13Zm4.084.07c-.75 0-1.28-.25-1.71-.64-.53-.51-.81-1.25-.81-2.1 0-.84.28-1.57.8-2.08.4-.39.94-.66 1.66-.66 1.49 0 2.4 1.05 2.4 2.6 0 .21-.01.38-.03.5h-3.58c0 .72.46 1.39 1.25 1.39.57 0 .96-.29 1.05-.7h1.17c-.16 1.02-1.07 1.69-2.2 1.69Zm1.09-3.29c0-.77-.44-1.2-1.12-1.2-.68 0-1.18.48-1.23 1.2h2.35Z" fill="#46C5F5"/>
        <path fill-rule="evenodd" clip-rule="evenodd" d="M223.152 100.718a.82.82 0 0 1 0-1.159l3.928-3.927h-8.675a.82.82 0 0 1 0-1.64h8.675l-3.928-3.927a.82.82 0 1 1 1.159-1.158l5.326 5.326a.82.82 0 0 1 0 1.159l-5.326 5.326a.82.82 0 0 1-1.159 0Z" fill="#AEB9CD"/>
      </g>
      <g clip-path="url(#d)">
        <path d="M31.455 165.741h1.708l-1.988 9.926h-1.96l-2.03-6.874-1.988 6.874h-2.002l-2.016-9.926h1.778l1.386 7.28 2.072-7.126h1.596l2.03 7.126 1.414-7.28Zm4.887 10.122c-1.736 0-2.632-1.092-2.632-2.282 0-1.33.98-2.212 2.604-2.324l2.002-.14v-.42c0-.686-.364-1.162-1.288-1.162-.854 0-1.288.378-1.33 1.05h-1.694c0-1.386 1.246-2.394 3.052-2.394 1.876 0 2.968.868 2.968 2.744v2.926c0 .336.154.462.448.462a.974.974 0 0 0 .224-.028v1.288c-.224.126-.476.196-.868.196-.756 0-1.218-.434-1.33-1.064-.336.588-1.12 1.148-2.156 1.148Zm.238-1.4c1.19 0 1.736-.784 1.736-1.736v-.322l-1.68.126c-.7.056-1.218.322-1.218.98 0 .56.434.952 1.162.952Zm7.454 1.288c-1.19 0-1.988-.574-1.988-1.96v-8.26h1.764v7.966c0 .42.098.7.7.7.154 0 .196-.014.294-.014v1.47c-.322.07-.448.098-.77.098Zm2.183-.084v-10.136h1.75v6.048l2.772-3.192h2.184l-2.744 2.968 2.884 4.312h-2.072l-1.988-3.066-1.036 1.134v1.932h-1.75Zm7.916-7.28h1.778v7.28h-1.778v-7.28Zm-.056-2.842h1.89v1.806h-1.89v-1.806Zm3.885 10.122v-7.28h1.525l.084.952c.434-.784 1.33-1.148 2.17-1.148 1.554 0 2.507 1.078 2.507 2.604v4.872h-1.75v-4.466c0-.854-.406-1.386-1.218-1.386-1.093 0-1.569.966-1.569 2.1v3.752h-1.75Zm11.113 3.22c-1.792 0-3.5-.392-3.5-2.044 0-.658.434-1.19 1.078-1.456a1.397 1.397 0 0 1-.728-1.204c0-.574.378-1.092.966-1.372a2.475 2.475 0 0 1-.882-1.918c0-1.624 1.288-2.702 2.982-2.702.602 0 1.19.168 1.652.448.224-.742.882-1.106 1.54-1.106.112 0 .364 0 .476.028v1.386c-.042-.014-.126-.014-.168-.014-.42 0-.882.14-.938.588.266.406.406.854.406 1.358 0 1.596-1.316 2.646-2.968 2.646-.42 0-.826-.07-1.204-.196-.196.098-.364.252-.364.49 0 .434.378.504.742.504h1.232c.728 0 1.666.014 2.352.49.63.434.854 1.022.854 1.722 0 1.666-1.624 2.352-3.528 2.352Zm0-1.33c.91 0 1.89-.14 1.89-.98s-.952-.868-1.61-.868h-1.568c-.378.112-.658.406-.658.868 0 .84 1.05.98 1.946.98Zm-.084-5.334c.798 0 1.288-.546 1.288-1.358s-.49-1.372-1.288-1.372-1.288.56-1.288 1.372.49 1.358 1.288 1.358Zm12.832-6.678-4.298 10.318h-1.288l4.298-10.318h1.288Zm7.62 10.318c-1.106 0-1.848-.378-2.38-.868-1.05-.966-1.218-2.576-1.218-4.172 0-1.596.168-3.22 1.218-4.186.532-.49 1.274-.868 2.38-.868 1.106 0 1.862.378 2.38.868 1.064.98 1.218 2.59 1.218 4.186s-.154 3.192-1.218 4.172c-.518.476-1.274.868-2.38.868Zm0-1.624c.56 0 .966-.168 1.246-.532.42-.532.56-1.47.56-2.884 0-1.064-.028-2.282-.602-2.94-.266-.308-.658-.49-1.204-.49-.546 0-.938.196-1.204.504-.574.672-.602 1.904-.602 2.926 0 1.47.168 2.408.602 2.926.28.336.672.49 1.204.49Zm4.871-.686h2.114v2.114h-2.114v-2.114Zm7.112 2.31c-1.96 0-3.388-1.288-3.444-3.108h1.764c.07.952.714 1.568 1.694 1.568 1.022 0 1.666-.602 1.666-1.484 0-1.008-.798-1.442-1.82-1.442h-.784v-1.526h.756c.812 0 1.638-.308 1.638-1.302 0-.742-.588-1.26-1.456-1.26-1.008 0-1.624.63-1.624 1.428h-1.778c.028-1.75 1.526-2.968 3.402-2.968 1.848 0 3.234 1.078 3.234 2.758 0 .882-.546 1.778-1.498 2.086 1.092.28 1.708 1.274 1.708 2.282 0 1.862-1.54 2.968-3.458 2.968Zm8.16-.196v-7.28h1.526l.07.966c.406-.686 1.106-1.162 2.072-1.162 1.022 0 1.708.462 2.072 1.19.434-.756 1.218-1.19 2.198-1.19 1.554 0 2.366 1.036 2.366 2.548v4.928h-1.736v-4.508c0-.896-.308-1.442-1.134-1.442-.966 0-1.414.854-1.414 1.89v4.06h-1.722v-4.508c0-.896-.308-1.442-1.134-1.442-.966 0-1.428.854-1.428 1.89v4.06h-1.736Zm12.278-7.28h1.778v7.28h-1.778v-7.28Zm-.056-2.842h1.89v1.806h-1.89v-1.806Z" fill="#F2F3F5"/>
        <path d="M24.485 194.835c-1.5 0-2.688-.948-2.748-2.292h1.5c.084.672.6 1.008 1.32 1.008 1.188 0 1.536-1.08 1.536-2.652-.252.672-1.068.972-1.728.972-1.824 0-2.88-1.116-2.88-2.808 0-1.632 1.14-2.88 3.012-2.88.864 0 1.524.3 1.992.744.768.72 1.104 1.74 1.104 3.432 0 1.212-.072 2.724-.972 3.624-.48.48-1.092.852-2.136.852Zm.036-4.188c.816 0 1.416-.648 1.416-1.524 0-.912-.516-1.596-1.44-1.596-.924 0-1.476.624-1.476 1.596 0 .864.54 1.524 1.5 1.524Zm6.246-2.22v1.812h-1.812v-1.812h1.812Zm0 4.428v1.812h-1.812v-1.812h1.812Zm4.204 1.98c-1.668 0-2.916-1.104-2.952-2.664h1.512c.06.816.6 1.344 1.452 1.344.876 0 1.428-.504 1.428-1.272 0-.864-.684-1.236-1.56-1.236h-.672v-1.308h.648c.708 0 1.404-.264 1.404-1.116 0-.636-.492-1.08-1.248-1.08-.864 0-1.392.54-1.392 1.224h-1.524c.036-1.5 1.308-2.544 2.916-2.544 1.584 0 2.772.924 2.772 2.364 0 .768-.468 1.512-1.284 1.788.936.264 1.464 1.08 1.464 1.956 0 1.596-1.332 2.544-2.964 2.544Zm7.297 0c-1.236 0-2.232-.66-2.724-1.668-.372-.732-.432-1.596-.432-2.496 0-1.224.132-2.712 1.032-3.636.48-.492 1.128-.852 2.184-.852 1.524 0 2.784.912 2.784 2.268h-1.584c-.084-.66-.516-.984-1.272-.984-1.344 0-1.632 1.38-1.632 2.568.384-.648 1.26-.924 1.92-.924 1.824 0 2.76 1.164 2.76 2.832 0 1.596-1.104 2.892-3.036 2.892Zm0-1.344c.96 0 1.512-.636 1.512-1.608 0-.864-.528-1.548-1.536-1.548-.84 0-1.464.672-1.464 1.548 0 .912.564 1.608 1.488 1.608Zm11.633-.72h-3.456l-.636 1.896h-1.596l3.036-8.508h1.908l3.036 8.508h-1.656l-.636-1.896Zm-.468-1.368-1.26-3.732-1.26 3.732h2.52Zm12.304-5.244v8.508h-1.5v-6.504l-2.208 6.384H60.84l-2.196-6.516v6.636h-1.5v-8.508h2.244l2.1 6.216 2.112-6.216h2.136ZM80.747 185.499a.472.472 0 1 0 0 .944h1.417v.968a4.724 4.724 0 1 0 .945 0v-.968h1.417a.472.472 0 1 0 0-.944h-3.779Zm1.89 2.834a3.778 3.778 0 1 1 .001 7.556 3.778 3.778 0 0 1-.001-7.556Zm0 1.417a.472.472 0 0 0-.473.472v1.889c0 .261.212.473.473.473h1.89a.473.473 0 0 0 0-.945h-1.418v-1.417a.472.472 0 0 0-.472-.472ZM91.617 189.435v-1.548l2.28-1.536h1.272v8.316h-1.5v-6.624l-2.052 1.392Zm8.247 5.4c-.96 0-1.572-.324-2.04-.744-.888-.828-1.044-2.208-1.044-3.576 0-1.368.144-2.76 1.044-3.588.468-.42 1.08-.744 2.04-.744s1.596.324 2.04.744c.912.84 1.044 2.22 1.044 3.588 0 1.368-.132 2.736-1.044 3.576-.444.42-1.08.744-2.04.744Zm0-1.392c.48 0 .84-.156 1.068-.456.372-.468.48-1.26.48-2.472 0-.924-.036-1.944-.516-2.52-.24-.276-.588-.42-1.032-.42-.468 0-.804.156-1.032.432-.48.588-.516 1.632-.516 2.508 0 1.26.144 2.064.516 2.508.228.276.576.42 1.032.42Zm4.809-5.016h1.308l.06.828c.348-.588.948-.996 1.776-.996.876 0 1.452.396 1.776 1.02.372-.66 1.032-1.02 1.884-1.02 1.344 0 2.028.888 2.028 2.184v4.224h-1.488v-3.864c0-.768-.252-1.236-.972-1.236-.828 0-1.212.72-1.212 1.62v3.48h-1.476v-3.864c0-.768-.252-1.236-.972-1.236-.828 0-1.224.72-1.224 1.62v3.48h-1.488v-6.24Z" fill="#AEB9CD"/>
        <path fill-rule="evenodd" clip-rule="evenodd" d="M129.068 188.549c.165-1.075.935-2.122 2.123-2.328-.129 1.408.626 2.741 1.687 3.609.466.381.918.825 1.251 1.307.333.483.533.984.533 1.488 0 1.128-.385 2.001-.999 2.593a3.254 3.254 0 0 1-1.346.768c.175-.233.279-.543.279-.931 0-1.193-.488-2.387-1.066-3.047-.137-.157-.36-.032-.374.175-.05.716-.421 1.106-.778 1.483-.356.374-.699.735-.699 1.389 0 .361.131.69.348.945-1.356-.388-2.174-1.484-2.42-2.717-.228-1.136.005-2.026.211-2.439a.365.365 0 0 0-.652-.326c-.279.558-.533 1.613-.274 2.908.366 1.83 1.826 3.452 4.246 3.452 1.191 0 2.258-.392 3.03-1.135.774-.745 1.223-1.816 1.223-3.118 0-.7-.277-1.344-.662-1.902-.386-.558-.893-1.051-1.39-1.457-1.01-.827-1.62-2.064-1.38-3.262a.456.456 0 0 0-.464-.546c-1.823.069-2.931 1.57-3.148 2.98a3.77 3.77 0 0 0 .301 2.134 3.843 3.843 0 0 0 .461.771l.038.046.011.013.004.004.001.002h.001l.272-.241-.272.242a.365.365 0 0 0 .546-.484h-.001l-.004-.006a.404.404 0 0 1-.024-.029c-.021-.027-.054-.069-.092-.125a3.165 3.165 0 0 1-.276-.493 3.039 3.039 0 0 1-.245-1.723Z" fill="#AEB9CD"/>
        <path d="M143.415 194.835c-1.668 0-2.916-1.104-2.952-2.664h1.512c.06.816.6 1.344 1.452 1.344.876 0 1.428-.504 1.428-1.272 0-.864-.684-1.236-1.56-1.236h-.672v-1.308h.648c.708 0 1.404-.264 1.404-1.116 0-.636-.492-1.08-1.248-1.08-.864 0-1.392.54-1.392 1.224h-1.524c.036-1.5 1.308-2.544 2.916-2.544 1.584 0 2.772.924 2.772 2.364 0 .768-.468 1.512-1.284 1.788.936.264 1.464 1.08 1.464 1.956 0 1.596-1.332 2.544-2.964 2.544Zm3.852-5.4v-1.548l2.28-1.536h1.272v8.316h-1.5v-6.624l-2.052 1.392Zm11.377 5.4c-.972 0-1.848-.276-2.52-.948-.912-.924-1.176-2.076-1.176-3.48s.264-2.544 1.188-3.468c.672-.672 1.548-.948 2.508-.948 1.836 0 3.192 1.26 3.324 3.048h-1.584c-.084-1.044-.732-1.644-1.788-1.644-.54 0-1.044.192-1.38.564-.564.612-.696 1.356-.696 2.448 0 1.092.132 1.848.696 2.46.348.372.816.564 1.38.564 1.008 0 1.656-.6 1.788-1.62h1.584c-.192 1.86-1.584 3.024-3.324 3.024Zm6.457 0c-1.488 0-2.256-.936-2.256-1.956 0-1.152.828-1.896 2.232-1.992l1.716-.12v-.36c0-.588-.3-.996-1.104-.996-.732 0-1.104.324-1.14.9h-1.452c0-1.188 1.068-2.052 2.616-2.052 1.62 0 2.544.732 2.544 2.352v2.508c0 .288.132.396.384.396.06 0 .132-.012.192-.024v1.104c-.192.108-.408.168-.744.168-.66 0-1.044-.372-1.14-.912-.288.516-.948.984-1.848.984Zm.204-1.2c1.02 0 1.488-.672 1.488-1.488v-.276l-1.44.108c-.612.048-1.044.276-1.044.84 0 .48.372.816.996.816Zm6.389 1.104c-1.02 0-1.704-.492-1.704-1.68v-7.08h1.512v6.828c0 .372.084.6.6.6.132 0 .168-.012.252-.012v1.26c-.276.06-.384.084-.66.084Z" fill="#AEB9CD"/>
        <rect x="20.969" y="202.667" width="56" height="19" rx="3" fill="#31353C"/>
        <path d="M33.969 207.577v7.09h-1.25v-5.42l-1.84 5.32h-.99l-1.83-5.43v5.53h-1.25v-7.09h1.87l1.75 5.18 1.76-5.18h1.78Zm3.74 7.23c-.88 0-1.5-.36-1.87-.79-.43-.47-.66-1.03-.66-1.95 0-.92.23-1.48.66-1.95.37-.43.99-.79 1.87-.79.88 0 1.5.36 1.87.79.43.47.66 1.03.66 1.95 0 .92-.23 1.48-.66 1.95-.37.43-.99.79-1.87.79Zm0-1.09c.39 0 .66-.14.85-.33.33-.33.41-.81.41-1.32s-.08-.99-.41-1.32c-.19-.19-.46-.33-.85-.33-.39 0-.66.14-.85.33-.33.33-.41.81-.41 1.32s.08.99.41 1.32c.19.19.46.33.85.33Zm5.717 1.09c-.57 0-1.06-.2-1.42-.51-.6-.52-.89-1.37-.89-2.22 0-.88.27-1.67.78-2.16.39-.39.92-.59 1.56-.59.76 0 1.18.33 1.37.64v-2.54h1.25v7.24h-1.09l-.07-.74c-.21.59-.84.88-1.49.88Zm.21-1.06c.37 0 .65-.14.84-.35.31-.33.41-.79.41-1.34 0-.52-.1-.96-.39-1.31-.21-.25-.49-.37-.86-.37s-.66.13-.87.39c-.28.35-.38.78-.38 1.29s.1 1 .41 1.33c.2.23.47.36.84.36Zm6.123 1.06c-.75 0-1.28-.25-1.71-.64-.53-.51-.81-1.25-.81-2.1 0-.84.28-1.57.8-2.08.4-.39.94-.66 1.66-.66 1.49 0 2.4 1.05 2.4 2.6 0 .21-.01.38-.03.5h-3.58c0 .72.46 1.39 1.25 1.39.57 0 .96-.29 1.05-.7h1.17c-.16 1.02-1.07 1.69-2.2 1.69Zm1.09-3.29c0-.77-.44-1.2-1.12-1.2-.68 0-1.18.48-1.23 1.2h2.35Zm2.393-2.05h1.09l.08.86c.24-.65.86-.93 1.47-.93.13 0 .26.01.39.03v1.2a1.56 1.56 0 0 0-.4-.05c-.93 0-1.37.6-1.37 1.57v2.52h-1.26v-5.2Zm5.358 5.34c-1.24 0-1.88-.78-1.88-1.63 0-.96.69-1.58 1.86-1.66l1.43-.1v-.3c0-.49-.25-.83-.92-.83-.61 0-.92.27-.95.75h-1.21c0-.99.89-1.71 2.18-1.71 1.35 0 2.12.61 2.12 1.96v2.09c0 .24.11.33.32.33.05 0 .11-.01.16-.02v.92c-.16.09-.34.14-.62.14-.55 0-.87-.31-.95-.76-.24.43-.79.82-1.54.82Zm.17-1c.85 0 1.24-.56 1.24-1.24v-.23l-1.2.09c-.51.04-.87.23-.87.7 0 .4.31.68.83.68Zm5.869.93c-1.05 0-1.65-.53-1.65-1.53v-2.71h-.99v-1.03h.99v-1.32l1.25-.31v1.63h1.26v1.03h-1.26v2.53c0 .4.26.57.66.57.27 0 .45-.03.61-.07v1.08c-.27.11-.56.13-.87.13Zm4.084.07c-.75 0-1.28-.25-1.71-.64-.53-.51-.81-1.25-.81-2.1 0-.84.28-1.57.8-2.08.4-.39.94-.66 1.66-.66 1.49 0 2.4 1.05 2.4 2.6 0 .21-.01.38-.03.5h-3.58c0 .72.46 1.39 1.25 1.39.57 0 .96-.29 1.05-.7h1.17c-.16 1.02-1.07 1.69-2.2 1.69Zm1.09-3.29c0-.77-.44-1.2-1.12-1.2-.68 0-1.18.48-1.23 1.2h2.35Z" fill="#46C5F5"/>
        <path fill-rule="evenodd" clip-rule="evenodd" d="M223.152 196.995a.82.82 0 0 1 0-1.159l3.928-3.927h-8.675a.82.82 0 0 1 0-1.639h8.675l-3.928-3.927a.82.82 0 0 1 1.159-1.159l5.326 5.326a.82.82 0 0 1 0 1.159l-5.326 5.326a.82.82 0 0 1-1.159 0Z" fill="#AEB9CD"/>
        <path stroke="#fff" stroke-opacity=".2" stroke-width=".833" d="M250.969 143.083h-250"/>
      </g>
      <path stroke="#fff" stroke-opacity=".2" stroke-width=".833" d="M250.969 239.083h-250"/>
      <g clip-path="url(#e)">
        <path d="M24.485 273.169c-1.728 0-2.928-1.02-2.988-2.604h1.5c.084.816.672 1.272 1.5 1.272.996 0 1.5-.708 1.5-1.608 0-.852-.492-1.524-1.5-1.524-.516 0-1.032.252-1.308.672h-1.524l.288-4.692h5.196v1.344h-3.936l-.132 2.04c.384-.456.972-.684 1.752-.684 1.728 0 2.7 1.2 2.7 2.784 0 1.764-1.164 3-3.048 3Zm6.106-6.408v1.812H28.78v-1.812h1.812Zm0 4.428v1.812H28.78v-1.812h1.812Zm1.349.432 3.228-3.144c.576-.564.744-1.068.744-1.488 0-.732-.468-1.14-1.188-1.14-.948 0-1.308.648-1.308 1.476h-1.524c0-1.728 1.128-2.808 2.856-2.808 1.536 0 2.688.924 2.688 2.508 0 .864-.468 1.632-1.104 2.244l-2.484 2.376h3.732v1.356h-5.64v-1.38Zm9.75 1.548c-1.572 0-3.024-.804-3.024-2.436 0-.852.492-1.728 1.524-2.052a1.996 1.996 0 0 1-1.344-1.848c0-1.548 1.308-2.316 2.844-2.316 1.536 0 2.844.768 2.844 2.316 0 .708-.444 1.524-1.344 1.848a2.129 2.129 0 0 1 1.524 2.052c0 1.632-1.452 2.436-3.024 2.436Zm0-5.148c.852 0 1.284-.516 1.284-1.14 0-.624-.432-1.092-1.284-1.092-.852 0-1.284.468-1.284 1.092 0 .624.432 1.14 1.284 1.14Zm0 3.864c.864 0 1.452-.504 1.452-1.284 0-.708-.504-1.26-1.452-1.26s-1.452.552-1.452 1.26c0 .78.588 1.284 1.452 1.284Zm10.541-7.392c1.956 0 2.976 1.092 2.976 2.604 0 1.5-1.02 2.616-2.976 2.616h-1.824v3.288h-1.536v-8.508h3.36Zm-.084 3.864c1.044 0 1.5-.468 1.5-1.248s-.456-1.26-1.5-1.26h-1.74v2.508h1.74Zm12.957-3.864v8.508h-1.5v-6.504l-2.208 6.384h-1.188l-2.196-6.516v6.636h-1.5v-8.508h2.244l2.1 6.216 2.112-6.216h2.136Z" fill="#AEB9CD"/>
        <path fill-rule="evenodd" clip-rule="evenodd" d="M223.152 292.995a.818.818 0 0 1 0-1.158l3.928-3.928h-8.675a.82.82 0 0 1 0-1.639h8.675l-3.928-3.927a.82.82 0 0 1 1.159-1.159l5.326 5.326a.82.82 0 0 1 0 1.159l-5.326 5.326a.82.82 0 0 1-1.159 0Z" fill="#AEB9CD"/>
        <rect x="20.969" y="282.667" width="76" height="29" rx="14.5" fill="#31353C"/>
        <path d="M36.525 292.159v3.36h3.492v-3.36h1.548v8.508h-1.548v-3.672h-3.492v3.672h-1.548v-8.508h1.548Zm9.527 8.676c-1.056 0-1.8-.432-2.244-.948-.516-.564-.792-1.236-.792-2.34 0-1.104.276-1.776.792-2.34.444-.516 1.188-.948 2.244-.948 1.056 0 1.8.432 2.244.948.516.564.792 1.236.792 2.34 0 1.104-.276 1.776-.792 2.34-.444.516-1.188.948-2.244.948Zm0-1.308c.468 0 .792-.168 1.02-.396.396-.396.492-.972.492-1.584 0-.612-.096-1.188-.492-1.584-.228-.228-.552-.396-1.02-.396-.468 0-.792.168-1.02.396-.396.396-.492.972-.492 1.584 0 .612.096 1.188.492 1.584.228.228.552.396 1.02.396Zm6.864 1.224c-1.26 0-1.98-.636-1.98-1.836v-3.252h-1.188v-1.236h1.188v-1.584l1.5-.372v1.956h1.511v1.236h-1.512v3.036c0 .48.313.684.792.684.325 0 .54-.036.733-.084v1.296c-.325.132-.672.156-1.044.156Zm5.041-8.592h3.6c1.536 0 2.736.768 2.736 2.268 0 .756-.408 1.584-1.272 1.836 1.008.3 1.452 1.092 1.452 1.956 0 1.572-1.224 2.448-2.892 2.448h-3.624v-8.508Zm3.42 7.116c.72 0 1.524-.3 1.524-1.164 0-.876-.648-1.188-1.476-1.188h-1.932v2.352h1.884Zm.036-3.648c.72 0 1.308-.3 1.308-1.08 0-.816-.624-1.056-1.344-1.056h-1.884v2.136h1.92Zm6.334 5.208c-1.488 0-2.256-.936-2.256-1.956 0-1.152.828-1.896 2.232-1.992l1.716-.12v-.36c0-.588-.3-.996-1.104-.996-.732 0-1.104.324-1.14.9h-1.452c0-1.188 1.068-2.052 2.616-2.052 1.62 0 2.544.732 2.544 2.352v2.508c0 .288.132.396.384.396.06 0 .132-.012.192-.024v1.104c-.192.108-.408.168-.744.168-.66 0-1.044-.372-1.14-.912-.288.516-.948.984-1.848.984Zm.204-1.2c1.02 0 1.488-.672 1.488-1.488v-.276l-1.44.108c-.612.048-1.044.276-1.044.84 0 .48.372.816.996.816Zm7.043 1.116c-1.26 0-1.98-.636-1.98-1.836v-3.252h-1.188v-1.236h1.188v-1.584l1.5-.372v1.956h1.512v1.236h-1.512v3.036c0 .48.312.684.792.684.324 0 .54-.036.732-.084v1.296c-.324.132-.672.156-1.044.156Zm3.831-8.772v3.108c.372-.54 1.08-.828 1.74-.828 1.368 0 2.148.948 2.148 2.244v4.164h-1.5v-3.888c0-.72-.312-1.14-1.068-1.14-.912 0-1.32.912-1.32 1.716v3.312h-1.5v-8.688h1.5Z" fill="#46C5F5"/>
      </g>
    </g>
  </g>
  <defs>
    <clipPath id="b">
      <rect x=".969" width="250" height="336" rx="8.333" fill="#fff"/>
    </clipPath>
    <clipPath id="c">
      <path fill="#fff" transform="translate(.969 46.667)" d="M0 0h250v96H0z"/>
    </clipPath>
    <clipPath id="d">
      <path fill="#fff" transform="translate(.969 142.667)" d="M0 0h250v96H0z"/>
    </clipPath>
    <clipPath id="e">
      <path fill="#fff" transform="translate(.969 238.667)" d="M0 0h250v96H0z"/>
    </clipPath>
  </defs>
</svg>